<svg width="428.827" height="429.32" viewBox="0 0 321.62 321.99" class="displayed_equation" xmlns="http://www.w3.org/2000/svg">
  <path d="M 176.539063 160.996094 C 176.539063 152.101563 169.328125 144.890625 160.433594 144.890625 C 151.539063 144.890625 144.328125 152.101563 144.328125 160.996094 C 144.328125 169.890625 151.539063 177.101563 160.433594 177.101563 C 169.328125 177.101563 176.539063 169.890625 176.539063 160.996094 Z M 176.539063 160.996094" fill="#ed61ae" />
  <path d="M 2087.460938 1609.939062 C 2087.460938 1876.775 1871.171875 2093.064062 1604.335938 2093.064062 C 1337.539063 2093.064062 1121.210938 1876.775 1121.210938 1609.939062 C 1121.210938 1343.103125 1337.539063 1126.814062 1604.335938 1126.814062 C 1871.171875 1126.814062 2087.460938 1343.103125 2087.460938 1609.939062 Z M 2087.460938 1609.939062" transform="matrix(.1 0 0 -.1 0 321.99)" fill="none" stroke-width="7.97" stroke-linejoin="round" stroke="#000" stroke-miterlimit="10" />
  <path d="M 2409.53125 1609.939062 C 2409.53125 2054.626562 2049.023438 2415.134375 1604.335938 2415.134375 C 1159.648438 2415.134375 799.140625 2054.626562 799.140625 1609.939062 C 799.140625 1165.251562 1159.648438 804.74375 1604.335938 804.74375 C 2049.023438 804.74375 2409.53125 1165.251562 2409.53125 1609.939062 Z M 2409.53125 1609.939062" transform="matrix(.1 0 0 -.1 0 321.99)" fill="none" stroke-width="7.97" stroke-linejoin="round" stroke="#000" stroke-miterlimit="10" />
  <path d="M 2731.601563 1609.939062 C 2731.601563 2232.517187 2226.914063 2737.204687 1604.335938 2737.204687 C 981.757813 2737.204687 477.070313 2232.517187 477.070313 1609.939062 C 477.070313 987.360937 981.757813 482.673437 1604.335938 482.673437 C 2226.914063 482.673437 2731.601563 987.360937 2731.601563 1609.939062 Z M 2731.601563 1609.939062" transform="matrix(.1 0 0 -.1 0 321.99)" fill="none" stroke-width="7.97" stroke-linejoin="round" stroke="#000" stroke-miterlimit="10" />
  <path d="M 3053.671875 1609.939062 C 3053.671875 2410.407812 2404.804688 3059.275 1604.335938 3059.275 C 803.867188 3059.275 155 2410.407812 155 1609.939062 C 155 809.470312 803.867188 160.603125 1604.335938 160.603125 C 2404.804688 160.603125 3053.671875 809.470312 3053.671875 1609.939062 Z M 3053.671875 1609.939062" transform="matrix(.1 0 0 -.1 0 321.99)" fill="none" stroke-width="7.97" stroke-linejoin="round" stroke="#000" stroke-miterlimit="10" />
  <path d="M212.996094 160.996094C212.996094 158.648438 211.09375 156.742188 208.746094 156.742188 206.398438 156.742188 204.492188 158.648438 204.492188 160.996094 204.492188 163.34375 206.398438 165.246094 208.746094 165.246094 211.09375 165.246094 212.996094 163.34375 212.996094 160.996094zM116.375 160.996094C116.375 158.648438 114.472656 156.742188 112.121094 156.742188 109.773438 156.742188 107.871094 158.648438 107.871094 160.996094 107.871094 163.34375 109.773438 165.246094 112.121094 165.246094 114.472656 165.246094 116.375 163.34375 116.375 160.996094zM245.203125 160.996094C245.203125 158.648438 243.300781 156.742188 240.953125 156.742188 238.605469 156.742188 236.703125 158.648438 236.703125 160.996094 236.703125 163.34375 238.605469 165.246094 240.953125 165.246094 243.300781 165.246094 245.203125 163.34375 245.203125 160.996094zM84.167969 160.996094C84.167969 158.648438 82.261719 156.742188 79.914063 156.742188 77.566406 156.742188 75.664063 158.648438 75.664063 160.996094 75.664063 163.34375 77.566406 165.246094 79.914063 165.246094 82.261719 165.246094 84.167969 163.34375 84.167969 160.996094zM164.6875 80.476563C164.6875 78.128906 162.78125 76.226563 160.433594 76.226563 158.085938 76.226563 156.183594 78.128906 156.183594 80.476563 156.183594 82.824219 158.085938 84.730469 160.433594 84.730469 162.78125 84.730469 164.6875 82.824219 164.6875 80.476563zM164.6875 241.515625C164.6875 239.167969 162.78125 237.261719 160.433594 237.261719 158.085938 237.261719 156.183594 239.167969 156.183594 241.515625 156.183594 243.863281 158.085938 245.765625 160.433594 245.765625 162.78125 245.765625 164.6875 243.863281 164.6875 241.515625zM221.621094 104.0625C221.621094 101.710938 219.71875 99.808594 217.371094 99.808594 215.019531 99.808594 213.117188 101.710938 213.117188 104.0625 213.117188 106.410156 215.019531 108.3125 217.371094 108.3125 219.71875 108.3125 221.621094 106.410156 221.621094 104.0625zM221.621094 217.929688C221.621094 215.582031 219.71875 213.679688 217.371094 213.679688 215.019531 213.679688 213.117188 215.582031 213.117188 217.929688 213.117188 220.277344 215.019531 222.183594 217.371094 222.183594 219.71875 222.183594 221.621094 220.277344 221.621094 217.929688zM107.75 104.0625C107.75 101.710938 105.847656 99.808594 103.496094 99.808594 101.148438 99.808594 99.246094 101.710938 99.246094 104.0625 99.246094 106.410156 101.148438 108.3125 103.496094 108.3125 105.847656 108.3125 107.75 106.410156 107.75 104.0625zM107.75 217.929688C107.75 215.582031 105.847656 213.679688 103.496094 213.679688 101.148438 213.679688 99.246094 215.582031 99.246094 217.929688 99.246094 220.277344 101.148438 222.183594 103.496094 222.183594 105.847656 222.183594 107.75 220.277344 107.75 217.929688zM277.4375 160.996094C277.4375 158.648438 275.53125 156.742188 273.183594 156.742188 270.835938 156.742188 268.933594 158.648438 268.933594 160.996094 268.933594 163.34375 270.835938 165.246094 273.183594 165.246094 275.53125 165.246094 277.4375 163.34375 277.4375 160.996094zM270.636719 122.433594C270.636719 120.085938 268.734375 118.179688 266.386719 118.179688 264.035156 118.179688 262.132813 120.085938 262.132813 122.433594 262.132813 124.78125 264.035156 126.683594 266.386719 126.683594 268.734375 126.683594 270.636719 124.78125 270.636719 122.433594zM251.054688 88.519531C251.054688 86.171875 249.152344 84.269531 246.804688 84.269531 244.457031 84.269531 242.554688 86.171875 242.554688 88.519531 242.554688 90.867188 244.457031 92.773438 246.804688 92.773438 249.152344 92.773438 251.054688 90.867188 251.054688 88.519531zM221.0625 63.351563C221.0625 61.003906 219.15625 59.097656 216.808594 59.097656 214.460938 59.097656 212.558594 61.003906 212.558594 63.351563 212.558594 65.699219 214.460938 67.601563 216.808594 67.601563 219.15625 67.601563 221.0625 65.699219 221.0625 63.351563zM184.265625 49.957031C184.265625 47.609375 182.359375 45.707031 180.011719 45.707031 177.664063 45.707031 175.761719 47.609375 175.761719 49.957031 175.761719 52.304688 177.664063 54.210938 180.011719 54.210938 182.359375 54.210938 184.265625 52.304688 184.265625 49.957031zM145.105469 49.957031C145.105469 47.609375 143.203125 45.707031 140.855469 45.707031 138.507813 45.707031 136.605469 47.609375 136.605469 49.957031 136.605469 52.304688 138.507813 54.210938 140.855469 54.210938 143.203125 54.210938 145.105469 52.304688 145.105469 49.957031zM108.3125 63.351563C108.3125 61.003906 106.40625 59.097656 104.058594 59.097656 101.710938 59.097656 99.808594 61.003906 99.808594 63.351563 99.808594 65.699219 101.710938 67.601563 104.058594 67.601563 106.40625 67.601563 108.3125 65.699219 108.3125 63.351563zM78.316406 88.519531C78.316406 86.171875 76.410156 84.269531 74.0625 84.269531 71.714844 84.269531 69.8125 86.171875 69.8125 88.519531 69.8125 90.867188 71.714844 92.773438 74.0625 92.773438 76.410156 92.773438 78.316406 90.867188 78.316406 88.519531zM58.734375 122.433594C58.734375 120.085938 56.832031 118.179688 54.484375 118.179688 52.136719 118.179688 50.230469 120.085938 50.230469 122.433594 50.230469 124.78125 52.136719 126.683594 54.484375 126.683594 56.832031 126.683594 58.734375 124.78125 58.734375 122.433594zM51.933594 160.996094C51.933594 158.648438 50.03125 156.742188 47.683594 156.742188 45.335938 156.742188 43.433594 158.648438 43.433594 160.996094 43.433594 163.34375 45.335938 165.246094 47.683594 165.246094 50.03125 165.246094 51.933594 163.34375 51.933594 160.996094zM58.734375 199.558594C58.734375 197.210938 56.832031 195.308594 54.484375 195.308594 52.136719 195.308594 50.230469 197.210938 50.230469 199.558594 50.230469 201.90625 52.136719 203.8125 54.484375 203.8125 56.832031 203.8125 58.734375 201.90625 58.734375 199.558594zM78.316406 233.472656C78.316406 231.121094 76.410156 229.21875 74.0625 229.21875 71.714844 229.21875 69.8125 231.121094 69.8125 233.472656 69.8125 235.820313 71.714844 237.722656 74.0625 237.722656 76.410156 237.722656 78.316406 235.820313 78.316406 233.472656zM108.3125 258.640625C108.3125 256.292969 106.40625 254.390625 104.058594 254.390625 101.710938 254.390625 99.808594 256.292969 99.808594 258.640625 99.808594 260.988281 101.710938 262.890625 104.058594 262.890625 106.40625 262.890625 108.3125 260.988281 108.3125 258.640625zM145.105469 272.035156C145.105469 269.6875 143.203125 267.78125 140.855469 267.78125 138.507813 267.78125 136.605469 269.6875 136.605469 272.035156 136.605469 274.382813 138.507813 276.285156 140.855469 276.285156 143.203125 276.285156 145.105469 274.382813 145.105469 272.035156zM184.265625 272.035156C184.265625 269.6875 182.359375 267.78125 180.011719 267.78125 177.664063 267.78125 175.761719 269.6875 175.761719 272.035156 175.761719 274.382813 177.664063 276.285156 180.011719 276.285156 182.359375 276.285156 184.265625 274.382813 184.265625 272.035156zM221.0625 258.640625C221.0625 256.292969 219.15625 254.390625 216.808594 254.390625 214.460938 254.390625 212.558594 256.292969 212.558594 258.640625 212.558594 260.988281 214.460938 262.890625 216.808594 262.890625 219.15625 262.890625 221.0625 260.988281 221.0625 258.640625zM251.054688 233.472656C251.054688 231.121094 249.152344 229.21875 246.804688 229.21875 244.457031 229.21875 242.554688 231.121094 242.554688 233.472656 242.554688 235.820313 244.457031 237.722656 246.804688 237.722656 249.152344 237.722656 251.054688 235.820313 251.054688 233.472656zM270.636719 199.558594C270.636719 197.210938 268.734375 195.308594 266.386719 195.308594 264.035156 195.308594 262.132813 197.210938 262.132813 199.558594 262.132813 201.90625 264.035156 203.8125 266.386719 203.8125 268.734375 203.8125 270.636719 201.90625 270.636719 199.558594zM309.621094 160.996094C309.621094 158.648438 307.714844 156.742188 305.367188 156.742188 303.019531 156.742188 301.117188 158.648438 301.117188 160.996094 301.117188 163.34375 303.019531 165.246094 305.367188 165.246094 307.714844 165.246094 309.621094 163.34375 309.621094 160.996094zM306.644531 131.824219C306.644531 129.476563 304.742188 127.570313 302.394531 127.570313 300.046875 127.570313 298.140625 129.476563 298.140625 131.824219 298.140625 134.171875 300.046875 136.074219 302.394531 136.074219 304.742188 136.074219 306.644531 134.171875 306.644531 131.824219zM297.867188 103.847656C297.867188 101.496094 295.964844 99.59375 293.617188 99.59375 291.269531 99.59375 289.363281 101.496094 289.363281 103.847656 289.363281 106.195313 291.269531 108.097656 293.617188 108.097656 295.964844 108.097656 297.867188 106.195313 297.867188 103.847656zM283.636719 78.203125C283.636719 75.855469 281.734375 73.953125 279.386719 73.953125 277.035156 73.953125 275.132813 75.855469 275.132813 78.203125 275.132813 80.550781 277.035156 82.453125 279.386719 82.453125 281.734375 82.453125 283.636719 80.550781 283.636719 78.203125zM264.535156 55.957031C264.535156 53.605469 262.632813 51.703125 260.285156 51.703125 257.9375 51.703125 256.03125 53.605469 256.03125 55.957031 256.03125 58.304688 257.9375 60.207031 260.285156 60.207031 262.632813 60.207031 264.535156 58.304688 264.535156 55.957031zM241.347656 38C241.347656 35.652344 239.445313 33.746094 237.097656 33.746094 234.746094 33.746094 232.84375 35.652344 232.84375 38 232.84375 40.347656 234.746094 42.253906 237.097656 42.253906 239.445313 42.253906 241.347656 40.347656 241.347656 38zM215.019531 25.09375C215.019531 22.742188 213.117188 20.839844 210.769531 20.839844 208.421875 20.839844 206.515625 22.742188 206.515625 25.09375 206.515625 27.441406 208.421875 29.34375 210.769531 29.34375 213.117188 29.34375 215.019531 27.441406 215.019531 25.09375zM186.628906 17.738281C186.628906 15.390625 184.726563 13.488281 182.378906 13.488281 180.03125 13.488281 178.128906 15.390625 178.128906 17.738281 178.128906 20.089844 180.03125 21.992188 182.378906 21.992188 184.726563 21.992188 186.628906 20.089844 186.628906 17.738281zM157.347656 16.253906C157.347656 13.902344 155.441406 12 153.09375 12 150.746094 12 148.84375 13.902344 148.84375 16.253906 148.84375 18.601563 150.746094 20.503906 153.09375 20.503906 155.441406 20.503906 157.347656 18.601563 157.347656 16.253906zM128.363281 20.695313C128.363281 18.347656 126.457031 16.441406 124.109375 16.441406 121.761719 16.441406 119.859375 18.347656 119.859375 20.695313 119.859375 23.042969 121.761719 24.945313 124.109375 24.945313 126.457031 24.945313 128.363281 23.042969 128.363281 20.695313zM100.859375 30.878906C100.859375 28.53125 98.957031 26.628906 96.609375 26.628906 94.261719 26.628906 92.359375 28.53125 92.359375 30.878906 92.359375 33.226563 94.261719 35.132813 96.609375 35.132813 98.957031 35.132813 100.859375 33.226563 100.859375 30.878906zM75.976563 46.390625C75.976563 44.042969 74.070313 42.140625 71.722656 42.140625 69.375 42.140625 67.472656 44.042969 67.472656 46.390625 67.472656 48.738281 69.375 50.640625 71.722656 50.640625 74.070313 50.640625 75.976563 48.738281 75.976563 46.390625zM54.71875 66.59375C54.71875 64.246094 52.816406 62.339844 50.46875 62.339844 48.121094 62.339844 46.214844 64.246094 46.214844 66.59375 46.214844 68.941406 48.121094 70.84375 50.46875 70.84375 52.816406 70.84375 54.71875 68.941406 54.71875 66.59375zM37.964844 90.660156C37.964844 88.3125 36.0625 86.40625 33.714844 86.40625 31.367188 86.40625 29.460938 88.3125 29.460938 90.660156 29.460938 93.007813 31.367188 94.910156 33.714844 94.910156 36.0625 94.910156 37.964844 93.007813 37.964844 90.660156zM26.402344 117.613281C26.402344 115.265625 24.5 113.359375 22.152344 113.359375 19.804688 113.359375 17.902344 115.265625 17.902344 117.613281 17.902344 119.960938 19.804688 121.863281 22.152344 121.863281 24.5 121.863281 26.402344 119.960938 26.402344 117.613281zM20.5 146.335938C20.5 143.988281 18.597656 142.085938 16.25 142.085938 13.902344 142.085938 11.996094 143.988281 11.996094 146.335938 11.996094 148.683594 13.902344 150.589844 16.25 150.589844 18.597656 150.589844 20.5 148.683594 20.5 146.335938zM20.5 175.65625C20.5 173.308594 18.597656 171.402344 16.25 171.402344 13.902344 171.402344 11.996094 173.308594 11.996094 175.65625 11.996094 178.003906 13.902344 179.90625 16.25 179.90625 18.597656 179.90625 20.5 178.003906 20.5 175.65625zM26.402344 204.378906C26.402344 202.03125 24.5 200.128906 22.152344 200.128906 19.804688 200.128906 17.902344 202.03125 17.902344 204.378906 17.902344 206.726563 19.804688 208.632813 22.152344 208.632813 24.5 208.632813 26.402344 206.726563 26.402344 204.378906zM37.964844 231.332031C37.964844 228.984375 36.0625 227.082031 33.714844 227.082031 31.367188 227.082031 29.460938 228.984375 29.460938 231.332031 29.460938 233.679688 31.367188 235.585938 33.714844 235.585938 36.0625 235.585938 37.964844 233.679688 37.964844 231.332031zM54.71875 255.398438C54.71875 253.050781 52.816406 251.148438 50.46875 251.148438 48.121094 251.148438 46.214844 253.050781 46.214844 255.398438 46.214844 257.746094 48.121094 259.652344 50.46875 259.652344 52.816406 259.652344 54.71875 257.746094 54.71875 255.398438zM75.976563 275.601563C75.976563 273.253906 74.070313 271.351563 71.722656 271.351563 69.375 271.351563 67.472656 273.253906 67.472656 275.601563 67.472656 277.949219 69.375 279.851563 71.722656 279.851563 74.070313 279.851563 75.976563 277.949219 75.976563 275.601563zM100.859375 291.113281C100.859375 288.765625 98.957031 286.863281 96.609375 286.863281 94.261719 286.863281 92.359375 288.765625 92.359375 291.113281 92.359375 293.460938 94.261719 295.363281 96.609375 295.363281 98.957031 295.363281 100.859375 293.460938 100.859375 291.113281zM128.363281 301.296875C128.363281 298.949219 126.457031 297.046875 124.109375 297.046875 121.761719 297.046875 119.859375 298.949219 119.859375 301.296875 119.859375 303.644531 121.761719 305.546875 124.109375 305.546875 126.457031 305.546875 128.363281 303.644531 128.363281 301.296875zM157.347656 305.738281C157.347656 303.390625 155.441406 301.488281 153.09375 301.488281 150.746094 301.488281 148.84375 303.390625 148.84375 305.738281 148.84375 308.089844 150.746094 309.992188 153.09375 309.992188 155.441406 309.992188 157.347656 308.089844 157.347656 305.738281zM186.628906 304.25C186.628906 301.902344 184.726563 300 182.378906 300 180.03125 300 178.128906 301.902344 178.128906 304.25 178.128906 306.601563 180.03125 308.503906 182.378906 308.503906 184.726563 308.503906 186.628906 306.601563 186.628906 304.25zM215.019531 296.902344C215.019531 294.550781 213.117188 292.648438 210.769531 292.648438 208.421875 292.648438 206.515625 294.550781 206.515625 296.902344 206.515625 299.25 208.421875 301.152344 210.769531 301.152344 213.117188 301.152344 215.019531 299.25 215.019531 296.902344zM241.347656 283.992188C241.347656 281.644531 239.445313 279.742188 237.097656 279.742188 234.746094 279.742188 232.84375 281.644531 232.84375 283.992188 232.84375 286.339844 234.746094 288.242188 237.097656 288.242188 239.445313 288.242188 241.347656 286.339844 241.347656 283.992188zM264.535156 266.035156C264.535156 263.6875 262.632813 261.785156 260.285156 261.785156 257.9375 261.785156 256.03125 263.6875 256.03125 266.035156 256.03125 268.382813 257.9375 270.289063 260.285156 270.289063 262.632813 270.289063 264.535156 268.382813 264.535156 266.035156zM283.636719 243.789063C283.636719 241.441406 281.734375 239.535156 279.386719 239.535156 277.035156 239.535156 275.132813 241.441406 275.132813 243.789063 275.132813 246.136719 277.035156 248.039063 279.386719 248.039063 281.734375 248.039063 283.636719 246.136719 283.636719 243.789063zM297.867188 218.144531C297.867188 215.796875 295.964844 213.894531 293.617188 213.894531 291.269531 213.894531 289.363281 215.796875 289.363281 218.144531 289.363281 220.492188 291.269531 222.398438 293.617188 222.398438 295.964844 222.398438 297.867188 220.492188 297.867188 218.144531zM306.644531 190.167969C306.644531 187.820313 304.742188 185.914063 302.394531 185.914063 300.046875 185.914063 298.140625 187.820313 298.140625 190.167969 298.140625 192.515625 300.046875 194.421875 302.394531 194.421875 304.742188 194.421875 306.644531 192.515625 306.644531 190.167969zM306.644531 190.167969" fill="#62aadf" />
  <path d="M149.410156 124.179688L149.332031 121.949219 149.039063 121.949219C148.984375 122.183594 148.871094 122.273438 148.695313 122.273438 148.425781 122.273438 148.179688 121.925781 147.164063 121.925781 146.007813 121.9375 145.046875 122.5625 145.046875 123.734375 145.046875 124.90625 145.949219 125.441406 146.84375 125.953125 147.757813 126.476563 148.695313 126.867188 148.695313 127.851563 148.695313 128.699219 148.171875 129.035156 147.335938 129.035156 146.195313 129.046875 145.628906 128.6875 145.234375 127.148438L144.890625 127.148438 144.992188 129.558594 145.339844 129.558594C145.347656 129.335938 145.480469 129.1875 145.636719 129.1875 145.894531 129.1875 146.328125 129.523438 147.492188 129.523438 148.785156 129.523438 149.753906 128.820313 149.753906 127.527344 149.753906 126.199219 148.648438 125.699219 147.65625 125.140625 146.820313 124.660156 146.015625 124.257813 146.015625 123.421875 146.015625 122.730469 146.453125 122.371094 147.210938 122.371094 148.339844 122.363281 148.761719 122.953125 149.074219 124.179688L149.410156 124.179688M152.242188 125.386719C152.789063 124.882813 153.191406 124.691406 153.625 124.691406 154.527344 124.691406 154.652344 125.464844 154.652344 126.378906L154.652344 128.308594C154.652344 128.84375 154.605469 129.066406 153.839844 129.066406L153.839844 129.390625 156.402344 129.390625 156.402344 129.066406C155.699219 129.066406 155.578125 128.855469 155.578125 128.261719L155.578125 126.042969C155.578125 125.128906 155.367188 123.980469 154.082031 123.980469 153.492188 123.980469 152.976563 124.234375 152.273438 124.894531L152.242188 124.894531 152.242188 121.511719 151.941406 121.511719 150.445313 121.902344 150.445313 122.21875C150.445313 122.21875 150.589844 122.195313 150.769531 122.195313 151.070313 122.195313 151.316406 122.25 151.316406 122.640625L151.316406 128.351563C151.316406 128.976563 151.113281 129.066406 150.535156 129.066406L150.535156 129.390625 153.066406 129.390625 153.066406 129.066406C152.296875 129.066406 152.242188 128.886719 152.242188 128.308594L152.242188 125.386719M161.230469 127.796875C160.871094 128.261719 160.527344 128.664063 159.621094 128.664063 158.730469 128.664063 157.882813 127.960938 157.882813 126.421875L161.40625 126.421875C161.351563 124.859375 160.550781 123.980469 159.332031 123.980469 158.027344 123.980469 156.980469 124.871094 156.980469 126.734375 156.980469 128.53125 158.015625 129.5 159.355469 129.5 160.503906 129.5 161.039063 128.800781 161.441406 127.949219zM157.871094 126.011719C157.960938 124.972656 158.40625 124.425781 159.164063 124.425781 159.957031 124.425781 160.328125 125.183594 160.359375 126.011719L157.871094 126.011719M164.699219 129.066406C163.898438 129.066406 163.84375 128.910156 163.84375 128.261719L163.84375 121.511719 163.5625 121.511719 162.089844 121.902344 162.089844 122.207031C162.089844 122.207031 162.257813 122.183594 162.445313 122.183594 162.726563 122.183594 162.914063 122.207031 162.914063 122.664063L162.914063 128.261719C162.914063 128.886719 162.871094 129.066406 162.132813 129.066406L162.132813 129.390625 164.699219 129.390625 164.699219 129.066406M167.898438 129.066406C167.097656 129.066406 167.042969 128.910156 167.042969 128.261719L167.042969 121.511719 166.761719 121.511719 165.289063 121.902344 165.289063 122.207031C165.289063 122.207031 165.457031 122.183594 165.648438 122.183594 165.925781 122.183594 166.117188 122.207031 166.117188 122.664063L166.117188 128.261719C166.117188 128.886719 166.070313 129.066406 165.335938 129.066406L165.335938 129.390625 167.898438 129.390625 167.898438 129.066406M175.554688 129.390625L175.554688 129.078125C174.527344 129.078125 174.113281 128.878906 174.113281 128.332031L174.113281 122.261719 173.789063 122.261719 171.625 122.875 171.625 123.242188C171.972656 123.132813 172.539063 123.066406 172.765625 123.066406 173.042969 123.066406 173.132813 123.222656 173.132813 123.609375L173.132813 128.332031C173.132813 128.886719 172.742188 129.078125 171.691406 129.078125L171.691406 129.390625 175.554688 129.390625M149.410156 91.980469L149.332031 89.75 149.039063 89.75C148.984375 89.984375 148.871094 90.074219 148.695313 90.074219 148.425781 90.074219 148.179688 89.726563 147.164063 89.726563 146.007813 89.738281 145.046875 90.363281 145.046875 91.535156 145.046875 92.707031 145.949219 93.238281 146.84375 93.753906 147.757813 94.277344 148.695313 94.667969 148.695313 95.652344 148.695313 96.496094 148.171875 96.835938 147.335938 96.835938 146.195313 96.84375 145.628906 96.488281 145.234375 94.949219L144.890625 94.949219 144.992188 97.355469 145.339844 97.355469C145.347656 97.132813 145.480469 96.988281 145.636719 96.988281 145.894531 96.988281 146.328125 97.324219 147.492188 97.324219 148.785156 97.324219 149.753906 96.621094 149.753906 95.328125 149.753906 94 148.648438 93.496094 147.65625 92.941406 146.820313 92.460938 146.015625 92.058594 146.015625 91.222656 146.015625 90.527344 146.453125 90.171875 147.210938 90.171875 148.339844 90.160156 148.761719 90.753906 149.074219 91.980469L149.410156 91.980469M152.242188 93.183594C152.789063 92.683594 153.191406 92.492188 153.625 92.492188 154.527344 92.492188 154.652344 93.261719 154.652344 94.175781L154.652344 96.105469C154.652344 96.644531 154.605469 96.867188 153.839844 96.867188L153.839844 97.191406 156.402344 97.191406 156.402344 96.867188C155.699219 96.867188 155.578125 96.652344 155.578125 96.0625L155.578125 93.84375C155.578125 92.929688 155.367188 91.777344 154.082031 91.777344 153.492188 91.777344 152.976563 92.035156 152.273438 92.695313L152.242188 92.695313 152.242188 89.3125 151.941406 89.3125 150.445313 89.703125 150.445313 90.015625C150.445313 90.015625 150.589844 89.996094 150.769531 89.996094 151.070313 89.996094 151.316406 90.050781 151.316406 90.441406L151.316406 96.152344C151.316406 96.777344 151.113281 96.867188 150.535156 96.867188L150.535156 97.191406 153.066406 97.191406 153.066406 96.867188C152.296875 96.867188 152.242188 96.6875 152.242188 96.105469L152.242188 93.183594M161.230469 95.59375C160.871094 96.0625 160.527344 96.464844 159.621094 96.464844 158.730469 96.464844 157.882813 95.761719 157.882813 94.222656L161.40625 94.222656C161.351563 92.660156 160.550781 91.777344 159.332031 91.777344 158.027344 91.777344 156.980469 92.671875 156.980469 94.535156 156.980469 96.332031 158.015625 97.300781 159.355469 97.300781 160.503906 97.300781 161.039063 96.597656 161.441406 95.75zM157.871094 93.808594C157.960938 92.773438 158.40625 92.226563 159.164063 92.226563 159.957031 92.226563 160.328125 92.984375 160.359375 93.808594L157.871094 93.808594M164.699219 96.867188C163.898438 96.867188 163.84375 96.710938 163.84375 96.0625L163.84375 89.3125 163.5625 89.3125 162.089844 89.703125 162.089844 90.007813C162.089844 90.007813 162.257813 89.984375 162.445313 89.984375 162.726563 89.984375 162.914063 90.007813 162.914063 90.464844L162.914063 96.0625C162.914063 96.6875 162.871094 96.867188 162.132813 96.867188L162.132813 97.191406 164.699219 97.191406 164.699219 96.867188M167.898438 96.867188C167.097656 96.867188 167.042969 96.710938 167.042969 96.0625L167.042969 89.3125 166.761719 89.3125 165.289063 89.703125 165.289063 90.007813C165.289063 90.007813 165.457031 89.984375 165.648438 89.984375 165.925781 89.984375 166.117188 90.007813 166.117188 90.464844L166.117188 96.0625C166.117188 96.6875 166.070313 96.867188 165.335938 96.867188L165.335938 97.191406 167.898438 97.191406 167.898438 96.867188M175.976563 95.40625L175.652344 95.40625C175.398438 96.074219 175.253906 96.308594 174.660156 96.308594L173.109375 96.308594 172.328125 96.34375 172.328125 96.285156 173.800781 94.890625C174.984375 93.699219 175.617188 92.929688 175.617188 91.933594 175.617188 90.761719 174.738281 90.007813 173.476563 90.007813 172.394531 90.007813 171.636719 90.632813 171.289063 91.710938L171.558594 91.824219C171.972656 90.988281 172.464844 90.730469 173.1875 90.730469 174.046875 90.730469 174.582031 91.265625 174.582031 92.101563 174.582031 93.273438 174.023438 93.976563 172.921875 95.113281L171.222656 96.808594 171.222656 97.191406 175.617188 97.191406 175.976563 95.40625M149.410156 59.78125L149.332031 57.550781 149.039063 57.550781C148.984375 57.785156 148.871094 57.871094 148.695313 57.871094 148.425781 57.871094 148.179688 57.527344 147.164063 57.527344 146.007813 57.535156 145.046875 58.160156 145.046875 59.335938 145.046875 60.507813 145.949219 61.039063 146.84375 61.554688 147.757813 62.078125 148.695313 62.46875 148.695313 63.449219 148.695313 64.296875 148.171875 64.632813 147.335938 64.632813 146.195313 64.644531 145.628906 64.285156 145.234375 62.746094L144.890625 62.746094 144.992188 65.15625 145.339844 65.15625C145.347656 64.933594 145.480469 64.789063 145.636719 64.789063 145.894531 64.789063 146.328125 65.125 147.492188 65.125 148.785156 65.125 149.753906 64.421875 149.753906 63.128906 149.753906 61.800781 148.648438 61.296875 147.65625 60.738281 146.820313 60.261719 146.015625 59.859375 146.015625 59.019531 146.015625 58.328125 146.453125 57.972656 147.210938 57.972656 148.339844 57.960938 148.761719 58.550781 149.074219 59.78125L149.410156 59.78125M152.242188 60.984375C152.789063 60.480469 153.191406 60.292969 153.625 60.292969 154.527344 60.292969 154.652344 61.0625 154.652344 61.976563L154.652344 63.90625C154.652344 64.441406 154.605469 64.667969 153.839844 64.667969L153.839844 64.988281 156.402344 64.988281 156.402344 64.667969C155.699219 64.667969 155.578125 64.453125 155.578125 63.863281L155.578125 61.644531C155.578125 60.730469 155.367188 59.578125 154.082031 59.578125 153.492188 59.578125 152.976563 59.835938 152.273438 60.496094L152.242188 60.496094 152.242188 57.113281 151.941406 57.113281 150.445313 57.503906 150.445313 57.816406C150.445313 57.816406 150.589844 57.796875 150.769531 57.796875 151.070313 57.796875 151.316406 57.847656 151.316406 58.238281L151.316406 63.953125C151.316406 64.578125 151.113281 64.667969 150.535156 64.667969L150.535156 64.988281 153.066406 64.988281 153.066406 64.667969C152.296875 64.667969 152.242188 64.488281 152.242188 63.90625L152.242188 60.984375M161.230469 63.394531C160.871094 63.863281 160.527344 64.265625 159.621094 64.265625 158.730469 64.265625 157.882813 63.5625 157.882813 62.023438L161.40625 62.023438C161.351563 60.460938 160.550781 59.578125 159.332031 59.578125 158.027344 59.578125 156.980469 60.472656 156.980469 62.335938 156.980469 64.132813 158.015625 65.101563 159.355469 65.101563 160.503906 65.101563 161.039063 64.398438 161.441406 63.550781zM157.871094 61.609375C157.960938 60.574219 158.40625 60.027344 159.164063 60.027344 159.957031 60.027344 160.328125 60.785156 160.359375 61.609375L157.871094 61.609375M164.699219 64.667969C163.898438 64.667969 163.84375 64.511719 163.84375 63.863281L163.84375 57.113281 163.5625 57.113281 162.089844 57.503906 162.089844 57.804688C162.089844 57.804688 162.257813 57.785156 162.445313 57.785156 162.726563 57.785156 162.914063 57.804688 162.914063 58.261719L162.914063 63.863281C162.914063 64.488281 162.871094 64.667969 162.132813 64.667969L162.132813 64.988281 164.699219 64.988281 164.699219 64.667969M167.898438 64.667969C167.097656 64.667969 167.042969 64.511719 167.042969 63.863281L167.042969 57.113281 166.761719 57.113281 165.289063 57.503906 165.289063 57.804688C165.289063 57.804688 165.457031 57.785156 165.648438 57.785156 165.925781 57.785156 166.117188 57.804688 166.117188 58.261719L166.117188 63.863281C166.117188 64.488281 166.070313 64.667969 165.335938 64.667969L165.335938 64.988281 167.898438 64.988281 167.898438 64.667969M171.757813 59.433594C172.140625 58.84375 172.550781 58.53125 173.21875 58.53125 173.914063 58.53125 174.359375 58.910156 174.359375 59.566406 174.359375 60.472656 173.566406 61.085938 172.808594 61.085938L172.597656 61.085938 172.597656 61.507813 172.820313 61.507813C173.890625 61.507813 174.839844 62.167969 174.839844 63.160156 174.839844 64.253906 174.15625 64.578125 173.453125 64.578125 173.1875 64.578125 173.03125 64.53125 172.550781 64.285156 172.160156 64.085938 172.070313 64.03125 171.894531 64.03125 171.601563 64.03125 171.457031 64.285156 171.457031 64.519531 171.457031 64.8125 171.703125 65.136719 172.707031 65.136719 174.335938 65.136719 175.753906 64.355469 175.753906 62.824219 175.753906 61.832031 175.007813 61.242188 174.113281 60.960938L174.113281 60.929688C174.816406 60.480469 175.320313 60.070313 175.320313 59.300781 175.320313 58.453125 174.660156 57.804688 173.523438 57.804688 172.609375 57.804688 171.914063 58.316406 171.503906 59.289063L171.757813 59.433594M149.410156 27.582031L149.332031 25.347656 149.039063 25.347656C148.984375 25.585938 148.871094 25.671875 148.695313 25.671875 148.425781 25.671875 148.179688 25.324219 147.164063 25.324219 146.007813 25.335938 145.046875 25.960938 145.046875 27.132813 145.046875 28.304688 145.949219 28.839844 146.84375 29.355469 147.757813 29.878906 148.695313 30.269531 148.695313 31.25 148.695313 32.097656 148.171875 32.433594 147.335938 32.433594 146.195313 32.445313 145.628906 32.085938 145.234375 30.546875L144.890625 30.546875 144.992188 32.957031 145.339844 32.957031C145.347656 32.734375 145.480469 32.589844 145.636719 32.589844 145.894531 32.589844 146.328125 32.925781 147.492188 32.925781 148.785156 32.925781 149.753906 32.222656 149.753906 30.925781 149.753906 29.597656 148.648438 29.097656 147.65625 28.539063 146.820313 28.058594 146.015625 27.660156 146.015625 26.820313 146.015625 26.128906 146.453125 25.773438 147.210938 25.773438 148.339844 25.761719 148.761719 26.351563 149.074219 27.582031L149.410156 27.582031M152.242188 28.785156C152.789063 28.28125 153.191406 28.09375 153.625 28.09375 154.527344 28.09375 154.652344 28.863281 154.652344 29.777344L154.652344 31.707031C154.652344 32.242188 154.605469 32.46875 153.839844 32.46875L153.839844 32.789063 156.402344 32.789063 156.402344 32.46875C155.699219 32.46875 155.578125 32.253906 155.578125 31.664063L155.578125 29.441406C155.578125 28.527344 155.367188 27.378906 154.082031 27.378906 153.492188 27.378906 152.976563 27.636719 152.273438 28.296875L152.242188 28.296875 152.242188 24.914063 151.941406 24.914063 150.445313 25.304688 150.445313 25.617188C150.445313 25.617188 150.589844 25.59375 150.769531 25.59375 151.070313 25.59375 151.316406 25.648438 151.316406 26.039063L151.316406 31.753906C151.316406 32.378906 151.113281 32.46875 150.535156 32.46875L150.535156 32.789063 153.066406 32.789063 153.066406 32.46875C152.296875 32.46875 152.242188 32.289063 152.242188 31.707031L152.242188 28.785156M161.230469 31.195313C160.871094 31.664063 160.527344 32.066406 159.621094 32.066406 158.730469 32.066406 157.882813 31.363281 157.882813 29.824219L161.40625 29.824219C161.351563 28.261719 160.550781 27.378906 159.332031 27.378906 158.027344 27.378906 156.980469 28.269531 156.980469 30.136719 156.980469 31.929688 158.015625 32.902344 159.355469 32.902344 160.503906 32.902344 161.039063 32.199219 161.441406 31.351563zM157.871094 29.410156C157.960938 28.371094 158.40625 27.824219 159.164063 27.824219 159.957031 27.824219 160.328125 28.585938 160.359375 29.410156L157.871094 29.410156M164.699219 32.46875C163.898438 32.46875 163.84375 32.308594 163.84375 31.664063L163.84375 24.914063 163.5625 24.914063 162.089844 25.304688 162.089844 25.605469C162.089844 25.605469 162.257813 25.585938 162.445313 25.585938 162.726563 25.585938 162.914063 25.605469 162.914063 26.0625L162.914063 31.664063C162.914063 32.289063 162.871094 32.46875 162.132813 32.46875L162.132813 32.789063 164.699219 32.789063 164.699219 32.46875M167.898438 32.46875C167.097656 32.46875 167.042969 32.308594 167.042969 31.664063L167.042969 24.914063 166.761719 24.914063 165.289063 25.304688 165.289063 25.605469C165.289063 25.605469 165.457031 25.585938 165.648438 25.585938 165.925781 25.585938 166.117188 25.605469 166.117188 26.0625L166.117188 31.664063C166.117188 32.289063 166.070313 32.46875 165.335938 32.46875L165.335938 32.789063 167.898438 32.789063 167.898438 32.46875M176.164063 31.027344L176.164063 30.257813 175.027344 30.257813 175.027344 25.59375 174.347656 25.59375 170.945313 30.324219 170.945313 31.027344 174.035156 31.027344 174.035156 32.789063 175.027344 32.789063 175.027344 31.027344zM174.035156 30.257813L171.558594 30.257813 171.558594 30.214844 173.992188 26.808594 174.035156 26.808594 174.035156 30.257813" />
</svg>